<svg xmlns="http://www.w3.org/2000/svg" width="32" height="32" viewBox="0 0 32 32" fill="none">
    <path d="M16 32C24.8366 32 32 24.8366 32 16C32 7.16344 24.8366 0 16 0C7.16344 0 0 7.16344 0 16C0 24.8366 7.16344 32 16 32Z" fill="black"/>
    <path d="M22.1036 12.558C23.5932 12.558 24.8008 11.3586 24.8008 9.87911C24.8008 8.39959 23.5932 7.2002 22.1036 7.2002C20.614 7.2002 19.4065 8.39959 19.4065 9.87911C19.4065 11.3586 20.614 12.558 22.1036 12.558Z" fill="white"/>
    <path d="M8.80078 9.92452H11.8179V21.0034H22.0579V24.0002H8.80078V9.92452Z" fill="white"/>
</svg>