<svg width="32" height="32" viewBox="0 0 32 32" fill="none" xmlns="http://www.w3.org/2000/svg">
    <path d="M16 32C24.8366 32 32 24.8366 32 16C32 7.16344 24.8366 0 16 0C7.16344 0 0 7.16344 0 16C0 24.8366 7.16344 32 16 32Z" fill="black"/>
    <g clip-path="url(#clip0_20132_67448)">
        <path d="M25.5045 20.6149L22.467 23.7821C22.401 23.8509 22.3211 23.9057 22.2323 23.9432C22.1435 23.9807 22.0477 24.0001 21.951 24H7.55185C7.48314 24 7.41593 23.9805 7.35848 23.9439C7.30103 23.9072 7.25583 23.8551 7.22844 23.7938C7.20106 23.7325 7.19268 23.6648 7.20433 23.599C7.21598 23.5332 7.24716 23.4721 7.29403 23.4232L10.3338 20.256C10.3997 20.1874 10.4793 20.1326 10.5678 20.0952C10.6563 20.0577 10.7517 20.0383 10.8483 20.0381H25.2466C25.3153 20.0381 25.3825 20.0576 25.44 20.0942C25.4974 20.1309 25.5426 20.183 25.5701 20.2443C25.5974 20.3056 25.6058 20.3733 25.5941 20.4391C25.5825 20.5049 25.5513 20.566 25.5045 20.6149ZM22.467 14.2369C22.401 14.1681 22.3211 14.1133 22.2323 14.0758C22.1435 14.0383 22.0477 14.019 21.951 14.0191H7.55185C7.48314 14.0191 7.41593 14.0386 7.35848 14.0752C7.30103 14.1118 7.25583 14.164 7.22844 14.2252C7.20106 14.2865 7.19268 14.3542 7.20433 14.4201C7.21598 14.4859 7.24716 14.547 7.29403 14.5958L10.3338 17.7631C10.3997 17.8317 10.4793 17.8864 10.5678 17.9239C10.6563 17.9614 10.7517 17.9808 10.8483 17.9809H25.2466C25.3153 17.9809 25.3825 17.9614 25.44 17.9248C25.4974 17.8882 25.5426 17.836 25.5701 17.7748C25.5974 17.7135 25.6058 17.6458 25.5941 17.5799C25.5825 17.5141 25.5513 17.453 25.5045 17.4042L22.467 14.2369ZM7.55185 11.9619H21.951C22.0477 11.9619 22.1435 11.9426 22.2323 11.9051C22.3211 11.8677 22.401 11.8128 22.467 11.744L25.5045 8.57676C25.5513 8.52792 25.5825 8.46683 25.5941 8.401C25.6058 8.33517 25.5974 8.26746 25.5701 8.2062C25.5426 8.14493 25.4974 8.09278 25.44 8.05615C25.3825 8.01952 25.3153 8 25.2466 8H10.8483C10.7517 8.00016 10.6563 8.01958 10.5678 8.05706C10.4793 8.09455 10.3997 8.14929 10.3338 8.21791L7.29481 11.3851C7.24798 11.4339 7.21682 11.495 7.20514 11.5607C7.19347 11.6265 7.20178 11.6941 7.22907 11.7554C7.25636 11.8166 7.30144 11.8687 7.35877 11.9054C7.41611 11.9421 7.48321 11.9617 7.55185 11.9619Z" fill="url(#paint0_linear_20132_67448)"/>
    </g>
    <defs>
        <linearGradient id="paint0_linear_20132_67448" x1="8.75239" y1="24.3813" x2="23.3787" y2="7.42297" gradientUnits="userSpaceOnUse">
            <stop offset="0.08" stop-color="#9945FF"/>
            <stop offset="0.3" stop-color="#8752F3"/>
            <stop offset="0.5" stop-color="#5497D5"/>
            <stop offset="0.6" stop-color="#43B4CA"/>
            <stop offset="0.72" stop-color="#28E0B9"/>
            <stop offset="0.97" stop-color="#19FB9B"/>
        </linearGradient>
        <clipPath id="clip0_20132_67448">
            <rect width="18.4" height="16" fill="white" transform="translate(7.19922 8)"/>
        </clipPath>
    </defs>
</svg>