<svg width="200" height="200" viewBox="0 0 200 200" fill="none" xmlns="http://www.w3.org/2000/svg">
<g clip-path="url(#clip0_7774_104741)">
<rect width="200" height="200" rx="100" fill="#F5F5FA"/>
<mask id="mask0_7774_104741" style="mask-type:alpha" maskUnits="userSpaceOnUse" x="0" y="0" width="200" height="200">
<path d="M100 200C155.228 200 200 155.228 200 100C200 44.7715 155.228 0 100 0C44.7715 0 0 44.7715 0 100C0 155.228 44.7715 200 100 200Z" fill="#070707"/>
</mask>
<g mask="url(#mask0_7774_104741)">
<path d="M69.5 82.5H108L69.5 111V138.5L31 101L69.5 62V82.5Z" fill="black"/>
<path d="M129.5 118H91L129.5 89.5V62L168 99.5L129.5 138.5V118Z" fill="black"/>
</g>
</g>
<defs>
<clipPath id="clip0_7774_104741">
<rect width="200" height="200" rx="100" fill="white"/>
</clipPath>
</defs>
</svg>
