<?xml version="1.0" encoding="UTF-8"?>
<svg version="1.1" xmlns="http://www.w3.org/2000/svg" width="32" height="32">
<path d="M0 0 C10.56 0 21.12 0 32 0 C32 10.56 32 21.12 32 32 C21.44 32 10.88 32 0 32 C0 21.44 0 10.88 0 0 Z " fill="#F9F9F9" transform="translate(0,0)"/>
<path d="M0 0 C1.875 1.1875 1.875 1.1875 3 3 C3.1875 5.6875 3.1875 5.6875 3 8 C3.99 8 4.98 8 6 8 C6 12.62 6 17.24 6 22 C-0.08823529 26.01823529 -0.08823529 26.01823529 -4.125 25.9375 C-7.26759138 24.91274194 -9.41833068 24.08602329 -12 22 C-12.48828125 18.64453125 -12.48828125 18.64453125 -12.3125 14.8125 C-12.24482422 12.90404297 -12.24482422 12.90404297 -12.17578125 10.95703125 C-12.11777344 9.98121094 -12.05976563 9.00539063 -12 8 C-11.01 8 -10.02 8 -9 8 C-8.87625 6.865625 -8.7525 5.73125 -8.625 4.5625 C-8.41875 3.386875 -8.2125 2.21125 -8 1 C-5.20129973 -0.39935013 -3.09501208 -0.25265405 0 0 Z " fill="#060606" transform="translate(19,3)"/>
<path d="M0 0 C3.96 0 7.92 0 12 0 C12 2.97 12 5.94 12 9 C7.62241031 11.18879485 6.5551674 11.08927916 2 10 C1.34 9.67 0.68 9.34 0 9 C0 6.03 0 3.06 0 0 Z " fill="#E2E2E2" transform="translate(10,14)"/>
<path d="M0 0 C1.65 0.33 3.3 0.66 5 1 C5 2.32 5 3.64 5 5 C3.02 5 1.04 5 -1 5 C-0.67 3.35 -0.34 1.7 0 0 Z " fill="#EBEBEB" transform="translate(14,6)"/>
</svg>
