<svg width="32" height="32" viewBox="0 0 32 32" fill="none" xmlns="http://www.w3.org/2000/svg">
    <path d="M19.4572 14.6623L21.8072 10.6746L28.1415 20.5406L28.1446 22.434L28.1239 9.40511C28.1089 9.08662 27.9398 8.7953 27.67 8.62346L16.2658 2.06361C15.9992 1.93244 15.6608 1.93396 15.3945 2.06776C15.3585 2.08569 15.3246 2.10533 15.2925 2.12675L15.2527 2.15173L4.18318 8.56638L4.14027 8.58589C4.08504 8.61127 4.02915 8.64357 3.97681 8.68107C3.76689 8.83155 3.62755 9.05413 3.58246 9.3038C3.57568 9.34164 3.57067 9.38013 3.56836 9.41908L3.58576 20.0363L9.48584 10.8914C10.2287 9.67884 11.8471 9.28825 13.3496 9.30947L15.1129 9.35601L4.72293 26.0186L5.9477 26.7237L16.4621 9.37295L21.1095 9.35607L10.6222 27.1446L14.9926 29.6584L15.5147 29.9587C15.7356 30.0484 15.996 30.053 16.2187 29.9725L27.7831 23.2708L25.5722 24.5519L19.4572 14.6623ZM20.3538 27.5761L15.9397 20.6483L18.6342 16.0759L24.4313 25.2131L20.3538 27.5761Z" fill="#2D374B"/>
    <path d="M15.9395 20.648L20.3534 27.576L24.431 25.2129L18.6339 16.0757L15.9395 20.648Z" fill="#28A0F0"/>
    <path d="M28.1444 22.4337L28.1413 20.5402L21.807 10.6743L19.457 14.662L25.5719 24.5516L27.7829 23.2704C27.9997 23.0942 28.1309 22.8358 28.1447 22.5569L28.1444 22.4337Z" fill="#28A0F0"/>
    <path d="M1.59961 24.2179L4.72178 26.017L15.1117 9.35448L13.3484 9.30794C11.8459 9.28672 10.2274 9.67731 9.48462 10.8899L3.58454 20.0348L1.59961 23.0846V24.2179Z" fill="white"/>
    <path d="M21.1071 9.35693L16.4597 9.37381L5.94531 26.7245L9.62042 28.8405L10.6198 27.1455L21.1071 9.35693Z" fill="white"/>
    <path d="M30.1019 9.33205C30.063 8.36012 29.5368 7.47038 28.7125 6.95238L17.1589 0.308154C16.3435 -0.10241 15.3249 -0.102937 14.508 0.30789C14.4115 0.356599 3.27238 6.8168 3.27238 6.8168C3.11821 6.89075 2.96972 6.97881 2.83005 7.0788C2.09421 7.60616 1.64568 8.4257 1.59961 9.32606V23.0861L3.58454 20.0363L3.5672 9.41906C3.56951 9.38024 3.57439 9.34201 3.58131 9.3043C3.6262 9.0545 3.76566 8.83165 3.97566 8.68104C4.02806 8.64354 15.3574 2.08566 15.3934 2.06767C15.6597 1.93393 15.9981 1.93235 16.2648 2.06351L27.6689 8.62324C27.9387 8.79507 28.1078 9.0864 28.1229 9.40489V22.557C28.1091 22.8359 27.9988 23.0943 27.782 23.2705L25.571 24.5517L24.4302 25.2129L20.3527 27.5759L16.2176 29.9723C15.9949 30.0528 15.7344 30.0482 15.5136 29.9584L10.6211 27.1445L9.62165 28.8395L14.0184 31.3709C14.1638 31.4537 14.2933 31.527 14.3996 31.5866C14.5642 31.6789 14.6764 31.7406 14.716 31.7599C15.0285 31.9117 15.4781 32 15.8833 32C16.2547 32 16.617 31.9318 16.9597 31.7975L28.9705 24.8418C29.6599 24.3076 30.0654 23.5021 30.1019 22.6295V9.33205Z" fill="#96BEDC"/>
</svg>