<svg width="256" height="256" viewBox="0 0 256 256" fill="none" xmlns="http://www.w3.org/2000/svg">
  <path
    d="M117.936 55.4424C123.094 49.5192 132.296 49.5191 137.454 55.4424L139.9 58.25C143.768 62.6924 150.149 63.9618 155.423 61.3379L158.756 59.6797C165.788 56.1812 174.291 59.7031 176.789 67.1494L177.974 70.6787C179.848 76.2635 185.257 79.8785 191.134 79.4727L194.848 79.2158C202.684 78.6747 209.192 85.1819 208.651 93.0176L208.394 96.7324C207.988 102.609 211.602 108.019 217.187 109.893L220.717 111.077C228.163 113.576 231.685 122.077 228.187 129.109L226.528 132.443C223.904 137.717 225.173 144.098 229.615 147.967L232.424 150.412C238.347 155.57 238.347 164.773 232.424 169.931L229.684 172.316C225.382 176.062 224.669 182.481 228.045 187.079C233.363 194.323 228.19 204.538 219.203 204.538H173.193C190.854 198.16 198.976 177.721 190.431 160.939C181.086 142.586 156.86 138.12 141.584 151.935L140.633 152.795C133.262 159.461 122.041 159.461 114.67 152.795L113.718 151.935C98.4426 138.12 74.2163 142.586 64.8713 160.939C56.3268 177.721 64.448 198.16 82.1096 204.538H36.1858C27.1992 204.538 22.0269 194.323 27.345 187.079C30.7205 182.481 30.008 176.062 25.7063 172.316L22.9661 169.931C17.0428 164.773 17.0428 155.57 22.9661 150.412L25.7737 147.967C30.2162 144.098 31.4854 137.718 28.8616 132.443L27.2034 129.109C23.7049 122.077 27.2268 113.576 34.6731 111.077L38.2024 109.893C43.7871 108.019 47.401 102.609 46.9954 96.7324L46.7395 93.0176C46.1984 85.1819 52.7055 78.6747 60.5413 79.2158L64.2551 79.4727C70.132 79.8785 75.5422 76.2635 77.4163 70.6787L78.5999 67.1494C81.0985 59.7031 89.6009 56.1812 96.6331 59.6797L99.967 61.3379C105.241 63.9617 111.622 62.6925 115.49 58.25L117.936 55.4424ZM128.361 183.359C136.721 183.36 143.499 187.734 143.499 193.131C143.499 198.528 136.721 202.902 128.361 202.902C120 202.902 113.221 198.528 113.221 193.131C113.221 187.734 120 183.359 128.361 183.359ZM91.9641 165.334C96.9461 165.334 100.985 169.373 100.985 174.355C100.984 179.337 96.946 183.376 91.9641 183.376C86.9823 183.376 82.9438 179.337 82.9436 174.355C82.9436 169.374 86.9822 165.334 91.9641 165.334ZM164.772 165.334C169.754 165.334 173.792 169.373 173.792 174.355C173.792 179.337 169.754 183.376 164.772 183.376C159.79 183.376 155.751 179.337 155.751 174.355C155.751 169.374 159.79 165.334 164.772 165.334Z"
    fill="#FE3C9C" />
</svg>
  