<svg width="28" height="28" viewBox="0 0 28 28" fill="none" xmlns="http://www.w3.org/2000/svg">
<g clip-path="url(#clip0_3340_700)">
<path d="M14 28C21.732 28 28 21.732 28 14C28 6.26801 21.732 0 14 0C6.26801 0 0 6.26801 0 14C0 21.732 6.26801 28 14 28Z" fill="#0B0E11"/>
<path d="M14 0.0703125C21.6933 0.0703125 27.9297 6.30667 27.9297 14C27.9297 21.6933 21.6933 27.9297 14 27.9297C6.30667 27.9297 0.0703125 21.6933 0.0703125 14C0.0703125 6.30667 6.30667 0.0703125 14 0.0703125Z" stroke="#EBEBF4" stroke-opacity="0.43" stroke-width="0.14"/>
<path d="M13.1021 4.90001H8.67581C8.52342 4.90001 8.39994 5.02536 8.39994 5.17998V9.67275C8.39994 9.82738 8.52342 9.95268 8.67581 9.95268H13.1021C13.2545 9.95268 13.378 9.82738 13.378 9.67275V5.17998C13.378 5.02536 13.2545 4.90001 13.1021 4.90001Z" fill="#FDFDFD"/>
<path d="M8.40168 17.8092V22.3019C8.40168 22.4566 8.52516 22.5819 8.67748 22.5819H13.1039C13.2563 22.5819 13.3797 22.4566 13.3797 22.3019V17.8092C13.3797 17.6546 13.2563 17.5293 13.1039 17.5293H8.67748C8.52516 17.5293 8.40168 17.6546 8.40168 17.8092Z" fill="#FDFDFD"/>
<path d="M8.39994 11.4953V15.988C8.39994 16.1427 8.52342 16.268 8.67581 16.268H13.1021C13.2545 16.268 13.378 16.1427 13.378 15.988V11.4953C13.378 11.3407 13.2545 11.2154 13.1021 11.2154H8.67581C8.52342 11.2154 8.39994 11.3407 8.39994 11.4953Z" fill="#FDFDFD"/>
<path d="M14.6219 17.8097V22.3024C14.6219 22.4571 14.7454 22.5824 14.8978 22.5824H19.3241C19.4765 22.5824 19.6 22.4571 19.6 22.3024V17.8097C19.6 17.6551 19.4765 17.5297 19.3241 17.5297H14.8978C14.7454 17.5297 14.6219 17.6551 14.6219 17.8097Z" fill="#F48B02"/>
<path d="M14.6219 11.4939V15.9867C14.6219 16.1413 14.7454 16.2666 14.8978 16.2666H19.3241C19.4765 16.2666 19.6 16.1413 19.6 15.9867V11.4939C19.6 11.3392 19.4765 11.2139 19.3241 11.2139H14.8978C14.7454 11.2139 14.6219 11.3392 14.6219 11.4939Z" fill="#F48B02"/>
</g>
<defs>
<clipPath id="clip0_3340_700">
<rect width="28" height="28" fill="white"/>
</clipPath>
</defs>
</svg>
