<?xml version="1.0" encoding="UTF-8"?>
<svg version="1.1" xmlns="http://www.w3.org/2000/svg" width="480" height="480">
<path d="M0 0 C158.4 0 316.8 0 480 0 C480 158.4 480 316.8 480 480 C321.6 480 163.2 480 0 480 C0 321.6 0 163.2 0 0 Z " fill="#5030E2" transform="translate(0,0)"/>
<path d="M0 0 C2.75789231 0.02147359 5.51318109 0.00004957 8.27099609 -0.02539062 C24.1181226 -0.05187843 38.66216562 2.68768856 53.50927734 8.27148438 C54.43474365 8.6158252 55.36020996 8.96016602 56.3137207 9.31494141 C69.39763252 14.33045994 80.53942583 21.56494177 91.25927734 30.52148438 C91.77232422 30.94800293 92.28537109 31.37452148 92.81396484 31.81396484 C98.99965427 37.02823414 104.41606822 42.61814312 109.44677734 48.95898438 C109.91680176 49.5503418 110.38682617 50.14169922 110.87109375 50.75097656 C113.03080658 53.56869536 114.81036602 55.93899598 115.25927734 59.52148438 C115.91927734 59.52148438 116.57927734 59.52148438 117.25927734 59.52148438 C123.4830065 70.25926215 129.07472971 80.81606058 133.25927734 92.52148438 C133.60861328 93.48957031 133.95794922 94.45765625 134.31787109 95.45507812 C135.41879377 99.04107107 136.15401495 102.64892524 136.82177734 106.33398438 C136.94746094 106.99462891 137.07314453 107.65527344 137.20263672 108.3359375 C142.97855122 139.57426042 138.53514271 171.63285851 123.25927734 199.52148438 C122.25190752 201.51778246 121.24969089 203.5167198 120.25927734 205.52148438 C119.59927734 205.52148438 118.93927734 205.52148438 118.25927734 205.52148438 C117.87449219 206.61396484 117.87449219 206.61396484 117.48193359 207.72851562 C116.19695606 210.66384768 114.72197042 212.73374839 112.69677734 215.20898438 C112.07673828 215.97597656 111.45669922 216.74296875 110.81787109 217.53320312 C103.27607944 226.34155521 95.30394905 234.676843 87.14599609 242.90820312 C86.58554911 243.47397379 86.02510212 244.03974445 85.44767189 244.62265968 C82.49600134 247.60077136 79.54086396 250.57539698 76.58325195 253.54760742 C74.14295224 256.00137267 71.71018276 258.46226362 69.28344727 260.92944336 C66.33389418 263.92811066 63.372442 266.91450605 60.40180397 269.89228249 C59.27599446 271.02481555 58.1544528 272.16160772 57.0372982 273.30267906 C55.48429521 274.88709307 53.91648349 276.45522194 52.34399414 278.02026367 C51.45624802 278.91609665 50.56850189 279.81192963 49.65385437 280.73490906 C47.25927734 282.52148438 47.25927734 282.52148438 45.15997314 282.50001526 C42.95722319 281.36597853 41.50703283 280.12984146 39.76342773 278.36621094 C39.09916275 277.70171936 38.43489777 277.03722778 37.75050354 276.3526001 C37.04312546 275.62973816 36.33574738 274.90687622 35.60693359 274.16210938 C34.86978622 273.42071716 34.13263885 272.67932495 33.37315369 271.91546631 C31.01556438 269.54108463 28.66859207 267.15651145 26.32177734 264.77148438 C24.74499601 263.17965217 23.16752969 261.58849815 21.58935547 259.99804688 C18.68346651 257.06766572 15.78159055 254.13343649 12.88452148 251.19433594 C8.62752892 246.87740395 4.33652121 242.59550025 0.03504944 238.32290649 C-2.13502194 236.16639031 -4.30228112 234.00705625 -6.46948242 231.84765625 C-7.60595343 230.7162189 -8.74331969 229.58568004 -9.8815918 228.45605469 C-23.60874705 214.8300824 -23.60874705 214.8300824 -26.74072266 210.52148438 C-26.6684444 206.19860246 -23.27189244 203.65337233 -20.38232422 200.82250977 C-19.82450256 200.26425003 -19.26668091 199.7059903 -18.69195557 199.1308136 C-16.84544138 197.28638966 -14.98852145 195.45282572 -13.13134766 193.61914062 C-11.84372642 192.33711818 -10.5567686 191.05442912 -9.27044678 189.77110291 C-5.87917794 186.39129099 -2.47900626 183.02057482 0.9230957 179.65167236 C4.37123769 176.23409758 7.81102534 172.80813812 11.25146484 169.3828125 C16.81783517 163.84280212 22.38923491 158.30791186 27.9675293 152.77990723 C34.94033006 145.87473933 34.94033006 145.87473933 41.57177734 138.64648438 C44.9579009 134.8504321 48.47132473 131.50639499 52.35693359 128.23632812 C55.00943299 125.84526604 57.23379922 123.15411113 59.53662109 120.43164062 C61.71080544 118.02081036 64.11454785 116.0261058 66.62255859 113.97460938 C68.30779184 112.47841184 69.66901788 110.90713261 71.07177734 109.14648438 C71.79365234 108.28023438 72.51552734 107.41398437 73.25927734 106.52148438 C73.91927734 106.52148438 74.57927734 106.52148438 75.25927734 106.52148438 C75.25927734 105.86148438 75.25927734 105.20148438 75.25927734 104.52148438 C31.03927734 104.52148438 -13.18072266 104.52148438 -58.74072266 104.52148438 C-58.74072266 162.27148438 -58.74072266 220.02148438 -58.74072266 279.52148438 C-93.06072266 279.52148438 -127.38072266 279.52148438 -162.74072266 279.52148438 C-162.82104999 248.88553065 -162.82104999 248.88553065 -162.84123039 233.67042065 C-162.85228058 225.46653595 -162.86627336 217.26269227 -162.89160156 209.05883789 C-162.91165646 202.55986867 -162.92446752 196.0609305 -162.92889965 189.56193119 C-162.93148674 186.12689016 -162.93748368 182.69193791 -162.95218277 179.25692558 C-163.05647801 151.84235517 -163.05647801 151.84235517 -160.74072266 139.52148438 C-160.55281662 138.46842606 -160.36491058 137.41536774 -160.17131042 136.33039856 C-157.93989855 124.14648413 -154.9213738 112.79701923 -149.74072266 101.52148438 C-149.11377072 100.09859345 -148.48749818 98.67540303 -147.86181641 97.25195312 C-143.91165903 88.41833795 -139.4442628 80.37339432 -133.74072266 72.52148438 C-133.07685547 71.57273437 -132.41298828 70.62398438 -131.72900391 69.64648438 C-123.24579793 57.85467126 -113.10574702 46.59886293 -101.74072266 37.52148438 C-101.24620605 37.12574219 -100.75168945 36.73 -100.2421875 36.32226562 C-86.03559241 25.09522044 -70.05687546 15.064372 -52.74072266 9.52148438 C-51.51611328 9.10640625 -50.29150391 8.69132812 -49.02978516 8.26367188 C-32.725719 2.83703734 -17.22821826 -0.15892626 0 0 Z " fill="#FEFEFE" transform="translate(251.74072265625,98.478515625)"/>
</svg>
