<svg width="32" height="32" viewBox="0 0 32 32" fill="none" xmlns="http://www.w3.org/2000/svg">
    <circle cx="16" cy="16" r="16" fill="#EBEBEB"/>
    <g clip-path="url(#clip0_420_34637)">
        <path d="M4.22838 8.7998H15.2599C15.4594 8.7998 15.6211 8.95895 15.6211 9.15557V14.2461C15.6211 14.5639 15.433 14.8527 15.14 14.9846L13.7507 15.6127C13.6832 15.6428 13.6394 15.71 13.6389 15.7842C13.6389 15.8573 13.6814 15.9231 13.7481 15.9544L15.1502 16.611C15.4378 16.7455 15.6211 17.0309 15.6211 17.3451V22.8435C15.6211 23.0401 15.4594 23.1993 15.2599 23.1993H4.22838C3.66023 23.1993 3.20001 22.746 3.20001 22.1867V9.81268C3.20001 9.25311 3.66023 8.7998 4.22838 8.7998ZM10.2117 18.3995C10.493 18.3995 10.6936 18.3621 10.8127 18.2876C10.9428 18.2129 11.0077 18.0746 11.0077 17.8718V17.8397C11.0077 17.6264 10.9374 17.4768 10.7964 17.3915C10.6666 17.3063 10.4444 17.2637 10.1303 17.2637H8.07379V18.3995H10.2117ZM10.1145 14.5115C10.6126 14.5115 10.8618 14.3352 10.8618 13.9833V13.9032C10.8618 13.7007 10.7969 13.5618 10.6671 13.4874C10.5477 13.4022 10.3476 13.3595 10.0659 13.3595H8.07405V14.5115H10.115H10.1145ZM16.556 17.2157H21.1022C21.1022 17.5787 21.1671 17.8292 21.2969 17.9681C21.4379 18.1067 21.638 18.176 21.8982 18.176C22.3421 18.176 22.5643 17.9252 22.5643 17.4236C22.5643 17.1782 22.4884 17.0027 22.337 16.8956C22.196 16.7889 21.9796 16.7355 21.6871 16.7355H19.185V14.8796L23.0352 13.9355H16.556C16.3753 13.9355 16.2287 13.791 16.2287 13.6129V9.06932C16.2287 8.9207 16.3511 8.7998 16.5023 8.7998H27.1606C27.7285 8.7998 28.1887 9.25311 28.1887 9.81268V13.4437C28.1887 13.8539 27.9026 14.2107 27.4976 14.3059L23.2791 15.296L23.474 15.3281H27.5002C27.9971 15.3281 28.4 15.7252 28.4 16.2144V22.1869C28.4 22.7465 27.9398 23.1998 27.3716 23.1998H16.5023C16.3511 23.1998 16.2287 23.0789 16.2287 22.9303V17.5384C16.2287 17.3602 16.3753 17.2157 16.556 17.2157Z" fill="#3368EF"/>
    </g>
    <defs>
        <clipPath id="clip0_420_34637">
            <rect width="25.2" height="14.4" fill="white" transform="translate(3.20001 8.7998)"/>
        </clipPath>
    </defs>
</svg>