<svg width="32" height="32" viewBox="0 0 32 32" fill="none" xmlns="http://www.w3.org/2000/svg">
    <path d="M16 32C24.8366 32 32 24.8366 32 16C32 7.16344 24.8366 0 16 0C7.16344 0 0 7.16344 0 16C0 24.8366 7.16344 32 16 32Z" fill="#627EEA"/>
    <path d="M15.5996 6.3999V13.4974L21.5985 16.1779L15.5996 6.3999Z" fill="white" fill-opacity="0.602"/>
    <path d="M15.5993 6.3999L9.59961 16.1779L15.5993 13.4974V6.3999Z" fill="white"/>
    <path d="M15.5996 20.7772V25.5999L21.6025 17.2949L15.5996 20.7772Z" fill="white" fill-opacity="0.602"/>
    <path d="M15.5993 25.5999V20.7764L9.59961 17.2949L15.5993 25.5999Z" fill="white"/>
    <path d="M15.5996 19.6611L21.5985 16.178L15.5996 13.499V19.6611Z" fill="white" fill-opacity="0.2"/>
    <path d="M9.59961 16.178L15.5993 19.6611V13.499L9.59961 16.178Z" fill="white" fill-opacity="0.602"/>
</svg>