<?xml version="1.0" encoding="UTF-8"?>
<svg version="1.1" xmlns="http://www.w3.org/2000/svg" width="52" height="52">
<path d="M0 0 C1.78854404 -0.01653657 3.57702261 -0.04379646 5.36523438 -0.08203125 C7.94891511 -0.13697269 10.53104709 -0.15870078 13.11523438 -0.17333984 C13.90919617 -0.19600922 14.70315796 -0.21867859 15.5211792 -0.24203491 C19.63726345 -0.22647409 22.17717231 0.12363296 25.43261719 2.7578125 C30.76724339 8.26569475 29.24415444 16.13127519 29.29345703 23.40673828 C29.30999361 25.19528232 29.33725349 26.98376089 29.37548828 28.77197266 C29.43042972 31.35565339 29.45215781 33.93778537 29.46679688 36.52197266 C29.48946625 37.31593445 29.51213562 38.10989624 29.53549194 38.92791748 C29.51993112 43.04400173 29.16982407 45.58391059 26.53564453 48.83935547 C21.02776229 54.17398167 13.16218184 52.65089272 5.88671875 52.70019531 C4.09817471 52.71673189 2.30969614 52.74399177 0.52148438 52.78222656 C-2.06219636 52.837168 -4.64432834 52.85889609 -7.22851562 52.87353516 C-8.02247742 52.89620453 -8.81643921 52.9188739 -9.63446045 52.94223022 C-13.7505447 52.9266694 -16.29045356 52.57656235 -19.54589844 49.94238281 C-24.88052464 44.43450057 -23.35743569 36.56892013 -23.40673828 29.29345703 C-23.42327486 27.504913 -23.45053474 25.71643442 -23.48876953 23.92822266 C-23.54371097 21.34454192 -23.56543906 18.76240994 -23.58007812 16.17822266 C-23.6027475 15.38426086 -23.62541687 14.59029907 -23.64877319 13.77227783 C-23.63321237 9.65619358 -23.28310532 7.11628472 -20.64892578 3.86083984 C-15.14104354 -1.47378636 -7.27546309 0.04930259 0 0 Z " fill="#7A83B9" transform="translate(23.056640625,-0.35009765625)"/>
<path d="M0 0 C4.875 3.75 4.875 3.75 6 6 C6.28501159 11.34955925 6.31379948 16.70020636 6.35009766 22.05664062 C6.36663423 23.84518466 6.39389412 25.63366323 6.43212891 27.421875 C6.48707034 30.00555573 6.50879843 32.58768772 6.5234375 35.171875 C6.54610687 35.96583679 6.56877625 36.75979858 6.59213257 37.57781982 C6.57657175 41.69390408 6.2264647 44.23381294 3.59228516 47.48925781 C-0.58173163 51.53197665 -3.84064349 51.17399694 -9.40234375 51.203125 C-10.65260094 51.21167511 -10.65260094 51.21167511 -11.92811584 51.22039795 C-13.69254282 51.22985044 -15.45698746 51.23638292 -17.22143555 51.24023438 C-19.92332635 51.24994904 -22.6244594 51.28097304 -25.32617188 51.3125 C-27.03905797 51.31902913 -28.75194952 51.32427996 -30.46484375 51.328125 C-31.2742894 51.3404718 -32.08373505 51.3528186 -32.91770935 51.36553955 C-38.60867063 51.34289138 -38.60867063 51.34289138 -40.73731995 49.47772217 C-41.36234657 48.74624969 -41.36234657 48.74624969 -42 48 C-41.01 48 -40.02 48 -39 48 C-39 47.34 -39 46.68 -39 46 C-37.53977417 46.02356567 -37.53977417 46.02356567 -36.05004883 46.04760742 C-32.42529633 46.10206239 -28.80057974 46.13640626 -25.17553711 46.16479492 C-23.60906893 46.17984622 -22.04264264 46.20029207 -20.47631836 46.22631836 C-18.21978394 46.26286433 -15.96380847 46.27976261 -13.70703125 46.29296875 C-13.01100296 46.30845261 -12.31497467 46.32393646 -11.59785461 46.33988953 C-7.21829975 46.34139243 -4.48165496 45.68834581 -1 43 C4.60164127 31.79671746 0.92603351 12.25340764 0 0 Z " fill="#4B5481" transform="translate(46,1)"/>
<path d="M0 0 C1.98266602 0.95727539 1.98266602 0.95727539 4 3 C4.32182561 6.02830426 4.39839338 8.667037 4.27734375 11.68359375 C4.24623253 12.96146507 4.24623253 12.96146507 4.2144928 14.26515198 C4.165903 16.06678897 4.10724811 17.86817841 4.03930664 19.66918945 C3.93802365 22.42326095 3.8738093 25.17638131 3.81445312 27.93164062 C3.7626277 29.68235852 3.70866201 31.43301463 3.65234375 33.18359375 C3.63340561 34.00661484 3.61446747 34.82963593 3.59495544 35.67759705 C3.45345405 39.01265082 3.29222305 41.42281447 1.77172852 44.42602539 C-2.61904661 48.32671813 -7.30423382 48.27614361 -12.92578125 48.1953125 C-13.67337204 48.1924826 -14.42096283 48.18965271 -15.19120789 48.18673706 C-17.5651388 48.17559469 -19.93868425 48.15050162 -22.3125 48.125 C-23.9277289 48.11496249 -25.54296376 48.10583799 -27.15820312 48.09765625 C-31.10561594 48.07567489 -35.05274274 48.04118657 -39 48 C-39 47.34 -39 46.68 -39 46 C-38.02651611 46.01571045 -37.05303223 46.0314209 -36.05004883 46.04760742 C-32.42529633 46.10206239 -28.80057974 46.13640626 -25.17553711 46.16479492 C-23.60906893 46.17984622 -22.04264264 46.20029207 -20.47631836 46.22631836 C-18.21978394 46.26286433 -15.96380847 46.27976261 -13.70703125 46.29296875 C-13.01100296 46.30845261 -12.31497467 46.32393646 -11.59785461 46.33988953 C-7.21829975 46.34139243 -4.48165496 45.68834581 -1 43 C4.60164127 31.79671746 0.92603351 12.25340764 0 0 Z " fill="#5C6496" transform="translate(46,1)"/>
<path d="M0 0 C8 0 8 0 10.5 1.5 C10.995 1.995 11.49 2.49 12 3 C11.6875 5.875 11.6875 5.875 11 9 C8 11 8 11 4 11 C4 12.98 4 14.96 4 17 C2.68 17 1.36 17 0 17 C0 11.39 0 5.78 0 0 Z " fill="#F4F1F5" transform="translate(26,18)"/>
<path d="M0 0 C0.99 0 1.98 0 3 0 C3.33 3.96 3.66 7.92 4 12 C5.32 12.33 6.64 12.66 8 13 C9.73956658 11.26043342 9.37190386 8.8063378 9.5625 6.4375 C9.64628906 5.42558594 9.73007812 4.41367187 9.81640625 3.37109375 C9.87699219 2.58863281 9.93757813 1.80617188 10 1 C10.99 1 11.98 1 13 1 C13.1080023 3.10304477 13.18558987 5.20766909 13.25 7.3125 C13.29640625 8.48425781 13.3428125 9.65601563 13.390625 10.86328125 C13 14 13 14 11.17578125 15.8984375 C8.27190088 17.36862469 6.21381641 17.34189536 3 17 C2.01 16.34 1.02 15.68 0 15 C-0.22137393 12.37302936 -0.28162025 9.99106036 -0.1875 7.375 C-0.17396484 6.66859375 -0.16042969 5.9621875 -0.14648438 5.234375 C-0.1111104 3.48925872 -0.05730221 1.74453392 0 0 Z " fill="#FAF9FA" transform="translate(8,18)"/>
<path d="M0 0 C11.22 0 22.44 0 34 0 C34 0.33 34 0.66 34 1 C29.64141073 1.3601417 25.2818484 1.69936285 20.92016602 2.01928711 C19.43664928 2.13105781 17.95355097 2.24853442 16.47094727 2.37182617 C14.33954822 2.54807511 12.20748616 2.70374216 10.07421875 2.85546875 C8.79119873 2.95496826 7.50817871 3.05446777 6.1862793 3.15698242 C3 3 3 3 0 0 Z " fill="#525B8A" transform="translate(4,49)"/>
<path d="M0 0 C1.9765625 1.2265625 1.9765625 1.2265625 4 3 C5.64974576 10.24210427 3.25925657 18.82673487 2 26 C1.67 26 1.34 26 1 26 C1.01160156 25.37996094 1.02320313 24.75992187 1.03515625 24.12109375 C1.11753019 16.03667944 0.60889919 8.05704105 0 0 Z " fill="#5D6699" transform="translate(46,1)"/>
<path d="M0 0 C0.66 0.33 1.32 0.66 2 1 C-3.87502087 6.54741748 -10.71028461 5.44988225 -18.375 5.25 C-19.68339844 5.23195313 -20.99179687 5.21390625 -22.33984375 5.1953125 C-25.56064689 5.14829348 -28.77994474 5.08258181 -32 5 C-32 4.67 -32 4.34 -32 4 C-31.20827393 3.9498877 -30.41654785 3.89977539 -29.60083008 3.84814453 C-26.00410747 3.61565576 -22.40835944 3.37046366 -18.8125 3.125 C-16.94368164 3.00705078 -16.94368164 3.00705078 -15.03710938 2.88671875 C-13.83505859 2.80292969 -12.63300781 2.71914063 -11.39453125 2.6328125 C-10.28956299 2.55949707 -9.18459473 2.48618164 -8.04614258 2.41064453 C-5.05842817 2.00787659 -2.7750948 1.11978044 0 0 Z " fill="#4B5380" transform="translate(43,47)"/>
<path d="M0 0 C0.99 0 1.98 0 3 0 C3 3.3 3 6.6 3 10 C2.01 10 1.02 10 0 10 C0 6.7 0 3.4 0 0 Z " fill="#F7F4F7" transform="translate(41,19)"/>
<path d="M0 0 C0.8125 1.625 0.8125 1.625 1 4 C-2.87862384 9.65170902 -2.87862384 9.65170902 -6.17578125 10.67578125 C-6.77777344 10.78277344 -7.37976562 10.88976563 -8 11 C-7.38511719 10.31164062 -7.38511719 10.31164062 -6.7578125 9.609375 C-6.21898437 8.99578125 -5.68015625 8.3821875 -5.125 7.75 C-4.59132812 7.14671875 -4.05765625 6.5434375 -3.5078125 5.921875 C-2.0202513 4.02581254 -0.99677564 2.18709995 0 0 Z " fill="#424A73" transform="translate(51,41)"/>
<path d="M0 0 C3 3 3 3 3.07421875 5.91796875 C2.94660156 6.99691406 2.81898437 8.07585938 2.6875 9.1875 C2.56761719 10.27417969 2.44773438 11.36085938 2.32421875 12.48046875 C2.21722656 13.31191406 2.11023437 14.14335937 2 15 C1.67 15 1.34 15 1 15 C0.67 10.05 0.34 5.1 0 0 Z " fill="#6770A6" transform="translate(46,1)"/>
<path d="M0 0 C0.99 0 1.98 0 3 0 C3.33 1.32 3.66 2.64 4 4 C2.68 4.33 1.36 4.66 0 5 C0 3.35 0 1.7 0 0 Z " fill="#8A8FB9" transform="translate(30,21)"/>
</svg>
