<svg width="40" height="40" viewBox="0 0 40 40" fill="none" xmlns="http://www.w3.org/2000/svg">
    <circle cx="20" cy="20" r="20" fill="black"/>
    <path d="M25.6724 31.0442L25.0663 31.0266V29.9891V28.9516L24.2701 28.8629C23.8321 28.8141 23.415 28.7623 23.3431 28.7478L23.2123 28.7215V29.7533V30.7852L23.1054 30.7846C23.0465 30.7841 22.624 30.7186 22.1665 30.6386C21.7089 30.5586 21.3189 30.4929 21.2998 30.4926C21.2807 30.4921 21.2593 30.0155 21.2523 29.433L21.2395 28.3741L20.36 28.1884C19.8357 28.0777 18.991 27.8455 18.2683 27.6135C17.6016 27.3995 16.9652 27.1975 16.854 27.1646L16.652 27.105V24.9871C16.652 23.8223 16.6639 22.8693 16.6784 22.8693C16.6929 22.8693 17.2884 23.0672 18.0017 23.309C18.715 23.5509 19.3237 23.7488 19.3544 23.7488C19.3965 23.7488 19.4072 23.2284 19.3979 21.6358L19.3855 19.5228L18.8863 19.3408C18.6118 19.2407 17.9968 19.0229 17.5196 18.8569L16.652 18.555V16.4313C16.652 14.6348 16.6622 14.3117 16.7183 14.3338C16.7548 14.3482 17.0275 14.4484 17.3244 14.5565C17.6213 14.6646 18.1834 14.8751 18.5735 15.0242C18.9637 15.1734 19.3113 15.2954 19.346 15.2954C19.3976 15.2954 19.4092 14.9107 19.4092 13.2014V11.1074L20.3006 11.3682C20.7908 11.5116 21.208 11.6293 21.2276 11.6298C21.2472 11.6303 21.2632 11.163 21.2632 10.5914V9.55219L22.2368 9.79738L23.2103 10.0426L23.2113 11.0776C23.2122 12.0206 23.2197 12.1149 23.2955 12.1382C23.3873 12.1663 24.5443 12.3874 24.8643 12.438L25.0663 12.4699V11.4352V10.4004L25.2446 10.4283C25.5729 10.4795 26.1798 10.5498 26.5757 10.5824L26.9679 10.6147V11.6348C26.9679 12.6536 26.9679 12.6549 27.0748 12.677C27.1337 12.6891 27.4268 12.7353 27.7262 12.7796C29.5197 13.045 30.5838 13.6489 31.0828 14.6846C31.304 15.1438 31.3871 15.5873 31.3881 16.3139C31.39 17.7143 30.8908 19.026 30.0129 19.9274C29.8482 20.0965 29.7214 20.2419 29.7311 20.2506C29.7409 20.2592 29.8906 20.3141 30.0638 20.3726C30.7073 20.5898 31.3458 21.1114 31.6197 21.6438C31.8888 22.1668 31.9698 22.532 31.9947 23.3335C32.0205 24.1623 31.9552 24.6467 31.72 25.3722C31.4358 26.2486 31.0301 26.9021 30.3691 27.5481C29.8702 28.0357 29.3415 28.3812 28.7371 28.6145C28.2818 28.7903 27.4703 28.9772 27.1624 28.9772H26.9679V30.0034V31.0295H26.8319C26.7571 31.0295 26.602 31.0368 26.4872 31.0457C26.3725 31.0546 26.0058 31.0539 25.6724 31.0442ZM27.3288 25.548C27.7306 25.4125 28.0966 25.0828 28.2539 24.7148C28.3438 24.5044 28.3645 24.3681 28.3671 23.9687C28.371 23.3536 28.2881 23.1102 27.97 22.8044C27.6266 22.4742 27.3127 22.3912 26.0798 22.3044C25.526 22.2654 24.7559 22.189 24.3684 22.1345C23.981 22.0801 23.5623 22.0221 23.4381 22.0058L23.2123 21.9761V23.6637V25.3513L23.5094 25.4026C23.7915 25.4514 24.8718 25.5847 25.2802 25.6211C25.3848 25.6304 25.8176 25.6418 26.2419 25.6463C26.9197 25.6535 27.0517 25.6416 27.3288 25.548ZM26.8949 18.9818C27.2212 18.8617 27.5472 18.5177 27.659 18.1755C27.8621 17.5536 27.725 16.7994 27.3446 16.4462C26.9691 16.0975 26.6214 15.9871 25.4942 15.8589C24.8707 15.7881 23.504 15.5703 23.2949 15.5086C23.2158 15.4852 23.2117 15.5764 23.2236 17.1115L23.2361 18.7393L23.9016 18.8496C25.5409 19.1213 26.4109 19.1598 26.8949 18.9818ZM10.9474 24.3225V22.1485L11.093 22.1186C11.5879 22.0168 13.336 22.0485 13.7165 22.166C13.7941 22.19 13.7997 22.3359 13.7997 24.3292V26.4666L13.4313 26.4235C13.0311 26.3768 11.2281 26.406 11.0543 26.4621L10.9474 26.4966V24.3225ZM15.9152 22.6191C15.3646 22.4602 14.8182 22.3341 13.9072 22.1556L13.8007 22.1347L13.7883 19.9733L13.7759 17.8119L13.3005 17.7488C13.0099 17.7102 12.4604 17.6912 11.8862 17.6999L10.9473 17.7141L10.9474 15.5554L10.9474 13.3967L11.2207 13.3616C11.5588 13.3182 12.8827 13.3742 13.3956 13.4537L13.7759 13.5127L13.7883 15.6737L13.8007 17.8347L13.9072 17.8596C13.9657 17.8733 14.2643 17.9391 14.5707 18.0058C15.1561 18.1333 15.8088 18.3106 16.3074 18.4777L16.6045 18.5772V20.6988C16.6045 21.8657 16.5991 22.8183 16.5926 22.8158C16.586 22.8133 16.2812 22.7248 15.9152 22.6191ZM8 20.571V18.3684L8.25291 18.2535C8.79765 18.0058 9.45646 17.8674 10.3744 17.8077L10.8998 17.7735V19.9472V22.121L10.3413 22.1802C9.27764 22.2931 8.63153 22.4423 8.17859 22.6799L8 22.7735V20.571ZM16.0815 14.0879C15.6707 13.9553 14.3286 13.5976 13.9067 13.5082L13.7997 13.4856V11.3408V9.19609L14.0968 9.26647C14.8829 9.45267 16.5091 9.95261 16.586 10.0317C16.5967 10.0427 16.5999 10.9961 16.5931 12.1503L16.5807 14.249L16.0815 14.0879ZM8 11.7308V9.53198L8.13073 9.46298C8.59626 9.2173 9.37964 9.06119 10.3413 9.02249L10.8998 9V11.1886V13.3771L10.365 13.4108C9.35639 13.4743 8.55345 13.6358 8.13073 13.8603L8 13.9297V11.7308Z" fill="#F6931A"/>
</svg>