<svg width="200" height="200" viewBox="0 0 200 200" fill="none" xmlns="http://www.w3.org/2000/svg">
<rect width="200" height="200" rx="100" fill="#0B0E11"/>
<path fill-rule="evenodd" clip-rule="evenodd" d="M67.0109 57.5959L100.742 38L133.83 57.5959L121.622 64.0207L100.742 52.456L78.8969 64.0207L67.0109 57.5959ZM45.8086 69.1608L58.6583 62.0935L70.2231 69.1608L58.6583 75.5857V90.0416L45.8086 83.6168V69.1608ZM100.099 62.4147L89.1765 69.1608L100.099 76.5494L111.985 69.1608L100.099 62.4147ZM67.3319 81.0468V94.8603L87.8915 106.746V130.197L100.099 138.228L112.948 130.197V106.746L133.829 94.8603V81.0468L121.943 73.9795L100.099 86.1867L78.8967 73.9795L67.3319 81.0468ZM46.1298 93.2541V130.197L78.8967 150.435V135.979L58.6583 124.093V100.321L46.1298 93.2541ZM67.3319 105.461V119.596L78.8967 126.342V111.886L67.3319 105.461ZM133.829 105.461L121.943 111.886V126.342L133.829 119.596V105.461ZM130.938 69.1608L142.824 62.4147L155.031 69.1608V83.6168L142.824 90.3629V76.5494L130.938 69.1608ZM155.031 93.2541L142.824 100.321V124.093L121.943 135.979V149.15L155.031 130.197V93.2541ZM87.8915 140.798L100.099 148.187L112.948 140.798V154.933L100.099 162L87.8915 154.933V140.798Z" fill="#FBB600"/>
</svg>
