<?xml version="1.0" standalone="no"?>
<!DOCTYPE svg PUBLIC "-//W3C//DTD SVG 20010904//EN"
 "http://www.w3.org/TR/2001/REC-SVG-20010904/DTD/svg10.dtd">
<svg version="1.0" xmlns="http://www.w3.org/2000/svg"
 width="393.000000pt" height="393.000000pt" viewBox="0 0 393.000000 393.000000"
 preserveAspectRatio="xMidYMid meet">

<g transform="translate(0.000000,393.000000) scale(0.100000,-0.100000)"
fill="#000000" stroke="none">
<path d="M1772 3550 c-280 -35 -517 -146 -698 -325 -150 -149 -233 -299 -281
-510 -26 -111 -23 -356 5 -469 84 -336 305 -568 664 -695 116 -40 280 -70 403
-73 l100 -3 2 215 2 215 68 -3 c94 -5 221 -36 292 -72 80 -40 165 -124 198
-196 71 -156 47 -362 -58 -495 -66 -83 -202 -154 -345 -179 -90 -16 -306 -8
-389 15 -155 42 -297 147 -347 254 l-23 51 -308 0 -309 0 7 -33 c66 -332 319
-624 659 -763 473 -193 1068 -112 1418 193 283 247 403 662 302 1049 -118 457
-517 747 -1071 781 l-103 6 0 -231 0 -232 -52 0 c-82 0 -227 34 -297 69 -110
56 -185 141 -217 249 -8 26 -15 88 -15 137 0 149 38 241 136 334 104 98 255
145 465 144 77 0 154 -6 200 -16 160 -36 286 -123 337 -233 l24 -54 295 0
c162 0 294 2 294 4 0 2 -6 38 -14 78 -74 385 -400 679 -853 768 -123 25 -372
35 -491 20z"/>
</g>
</svg>
